<svg width="180" height="138" viewBox="0 0 180 138" fill="none" xmlns="http://www.w3.org/2000/svg">
<path fill-rule="evenodd" clip-rule="evenodd" d="M18.1743 0.249172C18.1743 0.386216 17.5581 0.498344 16.805 0.498344C16.0519 0.498344 15.4357 0.610471 15.4357 0.747516C15.4357 0.88456 15.1063 0.996688 14.7035 0.996688C14.3007 0.996688 13.9021 1.10881 13.8174 1.24586C13.7328 1.3829 13.3967 1.49503 13.0705 1.49503C12.7444 1.49503 12.4123 1.60068 12.3326 1.72976C12.2527 1.85883 11.6861 2.03998 11.0731 2.13192C10.4602 2.22387 9.95851 2.39853 9.95851 2.52013C9.95851 2.64147 9.79046 2.74089 9.58506 2.74089C9.37967 2.74089 9.21162 2.85302 9.21162 2.99006C9.21162 3.12711 9.03858 3.23923 8.82696 3.23923C8.61534 3.23923 8.16201 3.51955 7.81968 3.86216C7.47736 4.20478 7.10167 4.48509 6.98466 4.48509C6.66225 4.48509 4.97925 6.23728 4.97925 6.57291C4.97925 6.73463 4.75569 7.02814 4.48257 7.22524C4.20921 7.42233 3.91667 7.95158 3.83227 8.40158C3.74812 8.85134 3.57935 9.21936 3.45785 9.21936C3.33611 9.21936 3.23651 9.49968 3.23651 9.84229C3.23651 10.1849 3.12448 10.4652 2.98755 10.4652C2.85062 10.4652 2.73859 10.7949 2.73859 11.198C2.73859 11.6012 2.62656 12.0001 2.48963 12.0848C2.34299 12.1755 2.24066 13.6656 2.24066 15.7125C2.24066 17.8621 2.33552 19.1862 2.48963 19.1862C2.62656 19.1862 2.73859 19.5787 2.73859 20.0583C2.73859 20.538 2.85062 20.9304 2.98755 20.9304C3.12448 20.9304 3.23651 21.204 3.23651 21.5387C3.23651 21.8733 3.33584 22.2084 3.45734 22.2834C3.57858 22.3584 3.75187 22.8137 3.84199 23.2948C3.93212 23.776 4.11287 24.1697 4.24358 24.1697C4.37428 24.1697 4.48133 24.3379 4.48133 24.5434C4.48133 24.749 4.59336 24.9172 4.73029 24.9172C4.86722 24.9172 4.97925 25.0642 4.97925 25.2438C4.97925 25.4237 5.20332 25.8115 5.47718 26.1057C5.75104 26.3998 5.9751 26.8134 5.9751 27.0247C5.9751 27.236 6.06947 27.4089 6.18498 27.4089C6.30025 27.4089 6.60571 27.8014 6.86389 28.281C7.12206 28.7607 7.4196 29.1531 7.52541 29.1531C7.63122 29.1531 7.71784 29.3527 7.71784 29.5964C7.71784 29.8403 7.94191 30.2014 8.21577 30.399C8.48963 30.5966 8.71369 30.9016 8.71369 31.077C8.71369 31.2521 8.8088 31.3957 8.92482 31.3957C9.04108 31.3957 9.33809 31.8442 9.58506 32.3923C9.83203 32.9405 10.129 33.389 10.2453 33.389C10.3613 33.389 10.4564 33.5572 10.4564 33.7628C10.4564 33.9684 10.561 34.1366 10.6887 34.1366C10.8164 34.1366 10.9875 34.3471 11.0691 34.6045C11.1508 34.8616 11.4973 35.3944 11.8392 35.7881C12.1812 36.1815 12.532 36.784 12.6189 37.1266C12.7056 37.4692 12.9829 37.9309 13.2349 38.1525C13.4868 38.3742 13.6929 38.6824 13.6929 38.8377C13.6929 38.9929 13.7861 39.12 13.8998 39.12C14.0136 39.12 14.2658 39.4282 14.46 39.8052C14.6542 40.1822 14.9534 40.6387 15.1245 40.8196C15.2958 41.0007 15.4357 41.3092 15.4357 41.5048C15.4357 41.7007 15.5288 41.8609 15.6426 41.8609C15.7564 41.8609 16.0086 42.1674 16.2028 42.5419C16.3969 42.9164 16.8607 43.546 17.2332 43.9412C17.6054 44.3364 17.9771 44.8711 18.059 45.129C18.1409 45.3872 18.3122 45.5985 18.4399 45.5985C18.5676 45.5985 18.6722 45.7816 18.6722 46.0054C18.6722 46.2291 18.8743 46.5934 19.1213 46.8152C19.3683 47.0367 19.8373 47.7787 20.1632 48.4639C20.6741 49.5379 20.77 50.174 20.8571 53.0736C20.9139 54.9596 20.8327 57.2036 20.6726 58.1816C20.5155 59.1409 20.3256 60.3464 20.2504 60.8602C20.1752 61.3743 20.0134 61.7946 19.8909 61.7946C19.7684 61.7946 19.668 62.0682 19.668 62.4029C19.668 62.7375 19.556 63.0804 19.4191 63.1651C19.2822 63.2498 19.1701 63.5927 19.1701 63.9273C19.1701 64.2619 19.0581 64.5355 18.9212 64.5355C18.7842 64.5355 18.6722 64.7598 18.6722 65.0339C18.6722 65.308 18.5602 65.5322 18.4232 65.5322C18.2863 65.5322 18.1743 65.735 18.1743 65.983C18.1743 66.2309 18.0097 66.6512 17.8088 66.9174C17.6076 67.1832 17.4396 67.5973 17.4353 67.8371C17.4309 68.0768 17.3154 68.2731 17.1784 68.2731C17.0415 68.2731 16.9295 68.4413 16.9295 68.6469C16.9295 68.8524 16.8174 69.0206 16.6805 69.0206C16.5436 69.0206 16.4315 69.2202 16.4315 69.4639C16.4315 69.7078 16.2075 70.0689 15.9336 70.2665C15.6598 70.4641 15.4357 70.781 15.4357 70.9706C15.4357 71.3018 14.7568 72.2628 13.695 73.4344C13.4201 73.7379 13.195 74.0511 13.195 74.1301C13.195 74.3083 12.8104 74.778 11.7635 75.8781C11.3186 76.3458 10.9479 76.8162 10.9402 76.9236C10.9322 77.031 10.2 77.7915 9.31294 78.6137C7.28315 80.4952 2.83095 84.9126 1.94265 85.9259C1.57319 86.3473 1.19651 87.0903 1.10514 87.5769C1.01402 88.0633 0.839991 88.5231 0.718746 88.5981C0.597252 88.6731 0.497925 89.0643 0.497925 89.4674C0.497925 89.8706 0.385892 90.2002 0.248963 90.2002C0.0953527 90.2002 0 91.4877 0 93.564C0 95.6404 0.0953527 96.9279 0.248963 96.9279C0.385892 96.9279 0.497925 97.4324 0.497925 98.0491C0.497925 98.6658 0.595512 99.1704 0.714765 99.1704C0.834018 99.1704 1.00606 99.7311 1.09693 100.416C1.18755 101.101 1.37006 101.662 1.50225 101.662C1.63445 101.662 1.74274 101.83 1.74274 102.036C1.74274 102.241 1.85477 102.41 1.9917 102.41C2.12863 102.41 2.24315 102.606 2.24613 102.846C2.24912 103.085 2.47071 103.562 2.73859 103.905C3.00647 104.247 3.22806 104.62 3.23104 104.732C3.23403 104.845 3.37668 105.091 3.54772 105.28C3.719 105.468 4.29734 106.133 4.8331 106.757C5.36887 107.381 5.94945 107.891 6.12323 107.891C6.29725 107.891 6.51062 108.116 6.59751 108.39C6.6844 108.664 6.84746 108.888 6.95974 108.888C7.07202 108.888 7.70886 109.254 8.37459 109.702C9.04032 110.149 9.92116 110.682 10.332 110.885C10.7427 111.088 11.1349 111.314 11.2033 111.386C11.3898 111.584 14.0482 112.377 14.524 112.377C14.7515 112.377 14.9378 112.489 14.9378 112.626C14.9378 112.763 15.3859 112.875 15.9336 112.875C16.4813 112.875 16.9295 112.987 16.9295 113.124C16.9295 113.282 18.6722 113.373 21.6598 113.373C24.6473 113.373 26.39 113.282 26.39 113.124C26.39 112.987 26.7276 112.875 27.1404 112.875C27.553 112.875 28.0852 112.771 28.323 112.644C28.5608 112.517 29.4545 112.208 30.309 111.959C31.1636 111.709 31.864 111.42 31.865 111.318C31.8662 111.215 32.0913 111.131 32.3651 111.131C32.639 111.131 32.8631 111.019 32.8631 110.881C32.8631 110.744 33.0311 110.632 33.2365 110.632C33.4419 110.632 33.61 110.52 33.61 110.383C33.61 110.246 33.834 110.134 34.1079 110.134C34.3817 110.134 34.6058 110.046 34.6058 109.939C34.6058 109.831 34.9621 109.532 35.3973 109.275C36.2724 108.758 36.9986 108.173 38.278 106.957C38.7466 106.512 39.2323 106.147 39.3575 106.147C39.4828 106.147 39.5851 105.986 39.5851 105.788C39.5851 105.59 39.7817 105.281 40.022 105.102C40.2622 104.923 40.6798 104.356 40.9499 103.842C41.22 103.328 41.5275 102.908 41.6333 102.908C41.7391 102.908 41.8257 102.684 41.8257 102.41C41.8257 102.136 41.9099 101.91 42.0124 101.909C42.2604 101.907 42.8216 100.678 42.8216 100.138C42.8216 99.9027 42.9617 99.6635 43.1328 99.6065C43.3676 99.528 43.444 98.3175 43.444 94.6851C43.444 91.0529 43.3676 89.8424 43.1328 89.7642C42.9617 89.7071 42.8216 89.3334 42.8216 88.9337C42.8216 88.534 42.7095 88.2068 42.5726 88.2068C42.4357 88.2068 42.3237 87.9265 42.3237 87.5839C42.3237 87.2413 42.2116 86.961 42.0747 86.961C41.9378 86.961 41.8257 86.7577 41.8257 86.5092C41.8257 86.2608 41.5456 85.4764 41.2033 84.7663C40.861 84.0561 40.5809 83.2503 40.5809 82.9755C40.5809 82.7007 40.4689 82.4759 40.332 82.4759C40.195 82.4759 40.083 82.309 40.083 82.1049C40.083 81.7762 39.8395 81.403 38.9627 80.3878C38.8257 80.2294 38.4976 79.7093 38.2335 79.2322C37.9693 78.755 37.5493 78.1832 37.2998 77.9616C37.0504 77.7399 36.8465 77.4825 36.8465 77.3895C36.8465 77.2966 36.5749 76.9488 36.243 76.6166C35.9109 76.2842 35.4963 75.6167 35.3216 75.1328C35.1468 74.6492 34.9143 74.2532 34.8047 74.2532C34.6954 74.2532 34.6058 74.029 34.6058 73.7549C34.6058 73.4808 34.4938 73.2565 34.3568 73.2565C34.2199 73.2565 34.1079 73.0323 34.1079 72.7582C34.1079 72.4841 33.9959 72.2598 33.8589 72.2598C33.722 72.2598 33.61 72.0902 33.61 71.8826C33.61 71.6753 33.5014 71.3108 33.369 71.0728C32.9365 70.2971 32.3651 68.2729 32.3651 67.5169C32.3651 67.1105 32.2531 66.7781 32.1162 66.7781C31.9793 66.7781 31.8672 66.2735 31.8672 65.6568C31.8672 65.0401 31.7552 64.5355 31.6183 64.5355C31.4661 64.5355 31.3693 63.3726 31.3693 61.5455C31.3693 59.7183 31.4661 58.5554 31.6183 58.5554C31.7552 58.5554 31.8672 58.219 31.8672 57.8079C31.8672 57.3967 31.9793 57.0604 32.1162 57.0604C32.2531 57.0604 32.3651 56.8815 32.3651 56.6627C32.3651 56.0794 33.168 54.8178 33.5392 54.8178C33.715 54.8178 33.8589 54.7057 33.8589 54.5686C33.8589 54.4316 34.027 54.3195 34.2324 54.3195C34.4378 54.3195 34.6058 54.2198 34.6058 54.0977C34.6058 53.9759 35.1087 53.6395 35.7234 53.3502C37.134 52.6866 39.3179 52.6421 40.2784 53.2573C41.1005 53.7838 41.5768 54.2245 41.5768 54.4593C41.5768 54.5559 41.7784 54.8161 42.0252 55.0378C42.5435 55.5035 43.3195 57.0751 43.3195 57.6586C43.3195 57.8779 43.4315 58.0571 43.5685 58.0571C43.7054 58.0571 43.8174 58.3374 43.8174 58.68C43.8174 59.0226 43.9093 59.3029 44.0213 59.3029C44.1336 59.3029 44.3778 59.8635 44.5643 60.5488C44.7508 61.234 44.995 61.7946 45.1073 61.7946C45.2193 61.7946 45.3112 62.0749 45.3112 62.4176C45.3112 62.7602 45.4163 63.0405 45.545 63.0405C45.6734 63.0405 45.8542 63.5451 45.9466 64.1618C46.0389 64.7785 46.2139 65.283 46.3354 65.283C46.4567 65.283 46.556 65.5073 46.556 65.7814C46.556 66.0555 46.668 66.2797 46.805 66.2797C46.9419 66.2797 47.0539 66.56 47.0539 66.9027C47.0539 67.2453 47.166 67.5256 47.3029 67.5256C47.4398 67.5256 47.5519 67.862 47.5519 68.2731C47.5519 68.6842 47.6639 69.0206 47.8008 69.0206C47.9378 69.0206 48.0498 69.2262 48.0498 69.4773C48.0498 69.7288 48.1242 70.0086 48.2151 70.0995C48.5006 70.3856 49.2946 72.8374 49.2946 73.4339C49.2946 73.7474 49.4066 74.0041 49.5436 74.0041C49.6805 74.0041 49.7925 74.3404 49.7925 74.7516C49.7925 75.1627 49.8919 75.4991 50.0134 75.4991C50.2297 75.4991 50.2907 75.7223 50.828 78.4892C50.9744 79.2429 51.1812 82.3825 51.2876 85.466C51.474 90.8705 51.9047 94.6853 52.3282 94.6853C52.4398 94.6853 52.5311 94.9656 52.5311 95.3083C52.5311 95.6509 52.6432 95.9312 52.7801 95.9312C52.917 95.9312 53.029 96.2676 53.029 96.6787C53.029 97.0898 53.1411 97.4262 53.278 97.4262C53.4149 97.4262 53.527 97.5829 53.527 97.7746C53.527 97.9662 53.8058 98.6108 54.1464 99.2073C54.487 99.8038 54.7671 100.488 54.7688 100.728C54.7705 100.967 54.8838 101.164 55.0207 101.164C55.1577 101.164 55.2697 101.332 55.2697 101.538C55.2697 101.743 55.3681 101.911 55.4886 101.911C55.6088 101.911 55.8466 102.248 56.0166 102.659C56.1866 103.07 56.4003 103.406 56.4911 103.406C56.5817 103.406 56.8693 103.771 57.13 104.216C57.6227 105.058 58.9195 106.396 59.2424 106.396C59.3447 106.396 59.7799 106.733 60.2099 107.144C60.6396 107.555 61.1604 107.891 61.367 107.891C61.5737 107.891 61.7427 108.004 61.7427 108.141C61.7427 108.278 62.0136 108.39 62.3445 108.39C62.6753 108.39 62.9928 108.53 63.0498 108.701C63.1262 108.93 64.0638 109.013 66.5975 109.013C69.1315 109.013 70.0688 108.93 70.1452 108.701C70.2022 108.53 70.4637 108.39 70.7261 108.39C70.9887 108.39 71.2033 108.278 71.2033 108.141C71.2033 108.004 71.4834 107.891 71.8257 107.891C72.1681 107.891 72.4481 107.779 72.4481 107.642C72.4481 107.505 72.6441 107.393 72.8838 107.392C73.1236 107.391 73.7676 107.114 74.3154 106.777C74.8631 106.439 75.4564 106.159 75.6336 106.155C75.8111 106.151 76.2179 105.895 76.5378 105.587C76.8578 105.278 77.6517 104.577 78.3025 104.029C79.748 102.812 79.9115 102.647 80.5394 101.77C80.8133 101.387 81.2895 100.819 81.5975 100.507C81.9055 100.196 82.1577 99.7672 82.1577 99.5554C82.1577 99.3436 82.2608 99.1704 82.387 99.1704C82.513 99.1704 83.045 98.3016 83.5695 97.2393C84.0939 96.1771 84.607 95.2709 84.7095 95.2253C84.8121 95.1794 84.8963 94.8899 84.8963 94.5814C84.8963 94.2732 84.9802 93.9368 85.0827 93.8341C85.2603 93.6565 85.6085 92.4233 86.1792 89.9511C86.5912 88.1657 86.7177 85.6942 86.4124 85.3887C86.2633 85.2395 86.1411 84.7608 86.1411 84.3252C86.1411 83.8897 85.973 83.131 85.7676 82.6389C85.5622 82.147 85.3942 81.4605 85.3942 81.1134C85.3942 80.7663 85.3031 80.4825 85.1918 80.4825C85.0803 80.4825 84.8353 80.0901 84.6473 79.6104C84.4593 79.1308 84.2144 78.7383 84.1028 78.7383C83.9915 78.7383 83.9004 78.5141 83.9004 78.24C83.9004 77.9659 83.8061 77.7416 83.6905 77.7416C83.5753 77.7416 83.2698 77.3492 83.0116 76.8695C82.7535 76.3899 82.4559 75.9974 82.3501 75.9974C82.2443 75.9974 82.1577 75.8434 82.1577 75.6551C82.1577 75.4669 81.7088 74.8221 81.1598 74.2223C80.6111 73.6226 80.0995 72.9356 80.0228 72.6959C79.9462 72.4562 79.8022 72.2598 79.7031 72.2598C79.5007 72.2598 78.0695 70.9166 77.2915 69.9966C77.0114 69.6655 76.3526 69.058 75.8281 68.6469C75.3033 68.2357 74.5618 67.6113 74.1807 67.259C73.7992 66.9069 73.0683 66.2902 72.5559 65.8885C72.0438 65.4871 71.3898 64.9342 71.1027 64.6601C70.8157 64.386 70.1049 63.8518 69.5228 63.4731C68.9407 63.0943 68.4647 62.6737 68.4647 62.5387C68.4647 62.4036 68.2817 62.293 68.0582 62.293C67.8346 62.293 67.4706 62.0847 67.249 61.8303C67.0277 61.5759 66.5943 61.2878 66.2863 61.1906C65.9783 61.0932 65.7261 60.9225 65.7261 60.8114C65.7261 60.7003 65.39 60.4698 64.9793 60.2996C64.5685 60.1294 64.2324 59.8915 64.2324 59.7711C64.2324 59.6505 64.0889 59.5521 63.9139 59.5521C63.7387 59.5521 63.4339 59.3278 63.2365 59.0537C63.0391 58.7797 62.7269 58.5554 62.5427 58.5554C62.2013 58.5554 60.4417 57.3384 60.2905 56.9981C60.2447 56.8952 60.0174 56.8112 59.7851 56.8112C59.5531 56.8112 59.2016 56.5869 59.0042 56.3128C58.8067 56.0388 58.502 55.8145 58.3267 55.8145C58.1517 55.8145 58.0083 55.7024 58.0083 55.5653C58.0083 55.4283 57.7922 55.3162 57.5281 55.3162C57.2642 55.3162 56.8999 55.1761 56.7189 55.0047C56.5382 54.8335 56.0821 54.534 55.7054 54.3397C55.3287 54.1453 55.0207 53.8929 55.0207 53.779C55.0207 53.6651 54.8527 53.572 54.6473 53.572C54.4419 53.572 54.2739 53.4598 54.2739 53.3228C54.2739 53.1857 54.1058 53.0736 53.9004 53.0736C53.695 53.0736 53.5257 52.9896 53.5242 52.8867C53.5225 52.7838 53.0744 52.4856 52.5284 52.2237C51.9822 51.9618 51.5353 51.6536 51.5353 51.5385C51.5353 51.4236 51.3112 51.3294 51.0373 51.3294C50.7635 51.3294 50.5394 51.2173 50.5394 51.0802C50.5394 50.9432 50.3714 50.8311 50.166 50.8311C49.9606 50.8311 49.7925 50.7189 49.7925 50.5819C49.7925 50.4448 49.6245 50.3327 49.4191 50.3327C49.2137 50.3327 49.0456 50.2206 49.0456 50.0836C49.0456 49.9465 48.9261 49.8344 48.78 49.8344C48.4641 49.8344 47.032 48.7826 45.8126 47.6551C43.8827 45.8708 43.3195 45.2255 43.3195 44.7989C43.3195 44.5534 43.2075 44.3526 43.0705 44.3526C42.9336 44.3526 42.8216 43.9602 42.8216 43.4805C42.8216 43.0008 42.7095 42.6084 42.5726 42.6084C42.4322 42.6084 42.3237 41.9025 42.3237 40.9888C42.3237 40.0751 42.4322 39.3692 42.5726 39.3692C42.7095 39.3692 42.8216 38.9834 42.8216 38.5118C42.8216 38.0401 42.9209 37.5928 43.0424 37.5178C43.1636 37.4428 43.3369 36.9876 43.4271 36.5064C43.5172 36.0253 43.6979 35.6316 43.8286 35.6316C43.9593 35.6316 44.0664 35.4073 44.0664 35.1332C44.0664 34.8591 44.1784 34.6349 44.3154 34.6349C44.4523 34.6349 44.5643 34.4106 44.5643 34.1366C44.5643 33.8625 44.6763 33.6382 44.8133 33.6382C44.9502 33.6382 45.0622 33.47 45.0622 33.2645C45.0622 33.0589 45.1743 32.8907 45.3112 32.8907C45.4481 32.8907 45.5602 32.7865 45.5602 32.6595C45.5602 32.4362 47.2748 29.407 47.5446 29.1531C47.6176 29.0846 47.8359 28.7203 48.0301 28.3433C48.2241 27.9663 48.476 27.6581 48.5898 27.6581C48.7036 27.6581 48.7967 27.5412 48.7967 27.3984C48.7967 27.1268 49.0454 26.7882 49.9793 25.7885C50.2872 25.4589 50.5394 25.1198 50.5394 25.0353C50.5394 24.7395 51.2542 24.1697 51.6251 24.1697C51.831 24.1697 52.0675 23.9556 52.1504 23.6942C52.3469 23.0751 54.2728 22.1763 55.4039 22.1763C56.0726 22.1763 56.5013 22.3814 57.1494 23.0113C57.6217 23.4705 58.0083 24.0311 58.0083 24.2571C58.0083 24.4831 58.1203 24.668 58.2573 24.668C58.3942 24.668 58.5062 24.8362 58.5062 25.0418C58.5062 25.2473 58.6183 25.4155 58.7552 25.4155C58.8921 25.4155 59.0042 25.7427 59.0042 26.1424C59.0042 26.542 59.0883 26.9063 59.1909 26.9522C59.4311 27.0591 60.2517 29.3916 60.2502 29.9629C60.2495 30.2026 60.361 30.399 60.4979 30.399C60.6349 30.399 60.7469 30.6232 60.7469 30.8973C60.7469 31.1714 60.8514 31.3957 60.9792 31.3957C61.1069 31.3957 61.2812 31.6162 61.3666 31.8858C61.5839 32.5707 63.6351 34.6349 64.0987 34.6349C64.3091 34.6349 64.4813 34.747 64.4813 34.8841C64.4813 35.0211 64.7614 35.1332 65.1037 35.1332C65.4461 35.1332 65.7261 35.2454 65.7261 35.3824C65.7261 35.5195 66.3423 35.6316 67.0954 35.6316C67.8485 35.6316 68.4647 35.5195 68.4647 35.3824C68.4647 35.2454 68.8568 35.1332 69.3361 35.1332C69.8154 35.1332 70.2075 35.0485 70.2075 34.9446C70.2075 34.841 70.6618 34.6145 71.217 34.441C72.2099 34.1308 74.2359 32.9453 74.3983 32.5792C74.4441 32.4763 74.587 32.3923 74.7162 32.3923C74.9699 32.3923 77.1784 30.2592 77.1784 30.014C77.1784 29.932 77.3186 29.7088 77.4896 29.5177C78.2285 28.6931 78.4232 28.4113 78.4232 28.1669C78.4232 28.0241 78.5353 27.9073 78.6722 27.9073C78.8091 27.9073 78.9212 27.683 78.9212 27.4089C78.9212 27.1348 79.0332 26.9106 79.1701 26.9106C79.3071 26.9106 79.4191 26.6958 79.4191 26.4329C79.4191 26.1703 79.5032 25.9181 79.6058 25.8723C79.8583 25.7601 80.6639 23.3581 80.6639 22.7182C80.6639 22.4364 80.7759 22.1364 80.9129 22.0517C81.0498 21.967 81.1618 21.3503 81.1618 20.6813C81.1618 20.0122 81.2739 19.3955 81.4108 19.3108C81.5477 19.2261 81.6598 18.3226 81.6598 17.3027C81.6598 16.2328 81.5544 15.4487 81.4108 15.4487C81.2739 15.4487 81.1618 14.8948 81.1618 14.2175C81.1618 13.5403 81.0627 12.925 80.9415 12.85C80.8205 12.7753 80.6651 12.404 80.5967 12.0255C80.464 11.2942 79.8764 9.67684 79.6676 9.46853C79.5991 9.40001 79.3758 9.00756 79.1714 8.59643C78.9672 8.1853 78.6032 7.66752 78.3627 7.446C78.1222 7.22424 77.9253 6.96735 77.9253 6.87466C77.9253 6.52407 76.5831 5.09806 75.3244 4.11134C74.7998 3.7002 74.2262 3.22379 74.0495 3.05236C73.8729 2.88117 73.6086 2.74089 73.4617 2.74089C73.315 2.74089 73.195 2.63773 73.195 2.5114C73.195 2.38532 72.8589 2.20816 72.4481 2.11796C72.0373 2.02776 71.7012 1.87776 71.7012 1.78507C71.7012 1.55334 69.8587 0.996688 69.0911 0.996688C68.7466 0.996688 68.4647 0.88456 68.4647 0.747516C68.4647 0.602248 67.6349 0.498344 66.473 0.498344C65.3111 0.498344 64.4813 0.602248 64.4813 0.747516C64.4813 0.88456 64.1997 0.996688 63.8554 0.996688C63.5114 0.996688 63.0351 1.09511 62.7973 1.21546C61.7514 1.7447 60.4519 2.24255 60.116 2.24255C59.9153 2.24255 59.751 2.35467 59.751 2.49172C59.751 2.62876 59.6241 2.74089 59.4689 2.74089C59.3138 2.74089 59.0059 2.94596 58.7843 3.19688C58.563 3.44755 58.1955 3.75602 57.9682 3.8821C57.0944 4.36649 54.4277 6.8298 52.5373 8.89892C52.26 9.20241 52.0332 9.56695 52.0332 9.70873C52.0332 9.85076 51.9381 9.96688 51.8221 9.96688C51.7058 9.96688 51.4088 10.4154 51.1618 10.9636C50.9149 11.5117 50.6388 11.9603 50.5481 11.9603C50.4575 11.9603 50.2295 12.3527 50.0415 12.8324C49.8535 13.312 49.6364 13.7054 49.5592 13.7067C49.4823 13.7082 49.198 14.2128 48.9276 14.828C48.6573 15.4434 48.3702 15.947 48.2895 15.947C48.2086 15.947 47.9888 16.3394 47.8008 16.8191C47.6129 17.2988 47.3679 17.6912 47.2563 17.6912C47.1451 17.6912 47.0539 17.8594 47.0539 18.065C47.0539 18.2705 46.9419 18.4387 46.805 18.4387C46.668 18.4387 46.556 18.5556 46.556 18.6984C46.556 18.8411 46.4435 19.0935 46.3063 19.259C46.1689 19.4244 45.6463 20.1767 45.1449 20.9304C44.6437 21.6842 44.1398 22.3383 44.0256 22.3839C43.9111 22.4297 43.8174 22.6258 43.8174 22.8199C43.8174 23.0143 43.7054 23.173 43.5685 23.173C43.4315 23.173 43.3195 23.2953 43.3195 23.4451C43.3195 23.7585 42.5773 24.7572 41.3278 26.1242C40.8485 26.6487 40.2324 27.391 39.9585 27.7742C39.6846 28.1572 39.2066 28.7083 38.8962 28.9989C38.5857 29.2892 37.9454 29.8912 37.4729 30.3367C37.0006 30.7822 36.5231 31.1465 36.4118 31.1465C36.3005 31.1465 36.0481 31.3707 35.8506 31.6448C35.579 32.0221 35.2061 32.1432 34.316 32.1432C32.9861 32.1432 32.3651 31.5703 32.3651 30.3434C32.3651 29.9629 32.2531 29.6515 32.1162 29.6515C31.9641 29.6515 31.8672 28.4886 31.8672 26.6614C31.8672 25.0169 31.9663 23.6713 32.0876 23.6713C32.2086 23.6713 32.3848 23.0546 32.4789 22.3009C32.573 21.5471 32.754 20.9304 32.881 20.9304C33.008 20.9304 33.112 20.6008 33.112 20.1976C33.112 19.7945 33.2241 19.3955 33.361 19.3108C33.4979 19.2261 33.61 18.7776 33.61 18.3141C33.61 17.8507 33.722 17.4022 33.8589 17.3174C33.9959 17.2327 34.1079 16.6656 34.1079 16.0569C34.1079 15.4482 34.2199 14.9503 34.3568 14.9503C34.507 14.9503 34.6058 13.917 34.6058 12.3487C34.6058 10.8831 34.497 9.67983 34.3568 9.59312C34.2199 9.5084 34.1079 9.05341 34.1079 8.58172C34.1079 8.11004 34.0232 7.72433 33.9197 7.72433C33.8161 7.72433 33.5704 7.36004 33.3735 6.91452C32.9609 5.98187 32.7854 5.74715 31.6847 4.65851C30.2636 3.25244 29.6505 2.74089 29.3866 2.74089C29.2446 2.74089 29.1286 2.65045 29.1286 2.53956C29.1286 2.42893 28.6526 2.13989 28.0705 1.89744C27.4885 1.65475 26.7324 1.3398 26.39 1.19753C26.0477 1.055 25.5732 0.839459 25.3354 0.718361C25.0977 0.597264 24.5094 0.498344 24.0284 0.498344C23.5471 0.498344 23.1535 0.386216 23.1535 0.249172C23.1535 0.0996688 22.1577 0 20.6639 0C19.1701 0 18.1743 0.0996688 18.1743 0.249172ZM152.863 24.362C151.836 24.5733 150.959 24.8407 150.913 24.9563C150.867 25.0719 150.559 25.1664 150.228 25.1664C149.897 25.1664 149.627 25.2785 149.627 25.4155C149.627 25.5526 149.402 25.6647 149.129 25.6647C148.855 25.6647 148.631 25.7694 148.631 25.8972C148.631 26.025 148.414 26.1984 148.148 26.2826C147.563 26.4685 144.896 29.0136 144.896 29.3861C144.896 29.5321 144.784 29.6515 144.647 29.6515C144.51 29.6515 144.398 29.8159 144.398 30.0167C144.398 30.3529 143.901 31.6536 143.372 32.7003C143.252 32.9383 143.154 33.5271 143.154 34.0085C143.154 34.4901 143.037 34.8841 142.893 34.8841C142.718 34.8841 142.674 36.2812 142.758 39.1823C142.921 44.8357 143.139 47.5918 143.421 47.5918C143.548 47.5918 143.651 48.0964 143.651 48.7131C143.651 49.3298 143.751 49.8344 143.872 49.8344C143.993 49.8344 144.169 50.4511 144.263 51.2048C144.357 51.9586 144.538 52.5753 144.665 52.5753C144.792 52.5753 144.896 52.9117 144.896 53.3228C144.896 53.7339 145.008 54.0703 145.145 54.0703C145.282 54.0703 145.394 54.3439 145.394 54.6785C145.394 55.0132 145.506 55.356 145.643 55.4407C145.78 55.5255 145.892 55.8618 145.892 56.1883C145.892 56.5147 146.004 56.8511 146.141 56.9358C146.278 57.0205 146.39 57.3569 146.39 57.6833C146.39 58.0097 146.497 58.3429 146.628 58.4236C146.758 58.5046 146.94 59.2399 147.033 60.0579C147.125 60.8762 147.299 61.5455 147.418 61.5455C147.537 61.5455 147.635 61.8818 147.635 62.293C147.635 62.7041 147.747 63.0405 147.884 63.0405C148.021 63.0405 148.133 63.4262 148.133 63.8979C148.133 64.3696 148.245 64.8246 148.382 64.9093C148.519 64.994 148.631 65.449 148.631 65.9207C148.631 66.3924 148.743 66.7781 148.88 66.7781C149.017 66.7781 149.129 67.2826 149.129 67.8993C149.129 68.516 149.226 69.0206 149.345 69.0206C149.464 69.0206 149.631 69.4973 149.715 70.0796C149.799 70.6619 149.975 71.6992 150.106 72.3844C150.236 73.0697 150.351 74.2188 150.358 74.9384C150.367 75.6581 150.485 76.2466 150.622 76.2466C150.766 76.2466 150.871 77.0357 150.871 78.1154C150.871 79.195 150.976 79.9842 151.12 79.9842C151.273 79.9842 151.369 81.23 151.369 83.2234C151.369 85.2168 151.273 86.4626 151.12 86.4626C150.983 86.4626 150.871 86.9112 150.871 87.4593C150.871 88.0075 150.759 88.456 150.622 88.456C150.485 88.456 150.372 88.7084 150.369 89.0167C150.364 89.811 149.141 91.1 148.196 91.3075C147 91.5704 144.762 91.2166 144.178 90.6722C143.9 90.4125 143.583 90.1977 143.475 90.1948C143.367 90.192 142.973 89.8275 142.601 89.3849C142.228 88.9427 141.64 88.2442 141.294 87.8331C140.948 87.422 140.664 86.9455 140.664 86.7741C140.664 86.6029 140.552 86.4626 140.415 86.4626C140.278 86.4626 140.166 86.2945 140.166 86.0889C140.166 85.8833 140.054 85.7151 139.917 85.7151C139.78 85.7151 139.668 85.4976 139.668 85.2315C139.668 84.9654 139.565 84.6838 139.438 84.6058C139.312 84.5276 139.135 84.1284 139.045 83.719C138.955 83.3094 138.779 82.9742 138.653 82.9742C138.526 82.9742 138.423 82.75 138.423 82.4759C138.423 82.2018 138.311 81.9776 138.174 81.9776C138.037 81.9776 137.925 81.7568 137.925 81.4867C137.925 81.2168 137.701 80.5966 137.427 80.1088C137.154 79.6209 136.929 79.0007 136.929 78.7308C136.929 78.4607 136.83 78.24 136.709 78.24C136.587 78.24 136.412 77.7354 136.32 77.1187C136.228 76.502 136.047 75.9974 135.918 75.9974C135.79 75.9974 135.685 75.661 135.685 75.2499C135.685 74.8388 135.573 74.5024 135.436 74.5024C135.299 74.5024 135.187 74.2221 135.187 73.8795C135.187 73.5369 135.075 73.2565 134.938 73.2565C134.801 73.2565 134.689 72.9202 134.689 72.509C134.689 72.0979 134.577 71.7615 134.44 71.7615C134.303 71.7615 134.191 71.4812 134.191 71.1386C134.191 70.796 134.086 70.5156 133.957 70.5156C133.829 70.5156 133.648 70.0111 133.556 69.3944C133.463 68.7777 133.288 68.2731 133.167 68.2731C133.045 68.2731 132.946 68.0488 132.946 67.7748C132.946 67.5007 132.834 67.2764 132.697 67.2764C132.56 67.2764 132.448 67.0522 132.448 66.7781C132.448 66.504 132.336 66.2797 132.199 66.2797C132.062 66.2797 131.95 66.1115 131.95 65.906C131.95 65.7004 131.852 65.5322 131.731 65.5322C131.611 65.5322 131.382 65.2173 131.223 64.8323C130.92 64.1015 129.803 63.2897 129.099 63.2897C128.326 63.2897 127.29 64.0138 126.976 64.773C126.803 65.1906 126.563 65.5322 126.443 65.5322C126.322 65.5322 126.224 65.7004 126.224 65.906C126.224 66.1115 126.112 66.2797 125.975 66.2797C125.838 66.2797 125.726 66.504 125.726 66.7781C125.726 67.0522 125.614 67.2764 125.477 67.2764C125.34 67.2764 125.228 67.5007 125.228 67.7748C125.228 68.0488 125.116 68.2731 124.979 68.2731C124.842 68.2731 124.73 68.3822 124.73 68.5155C124.73 68.8851 123.408 71.6255 123.184 71.7199C123.076 71.7657 122.988 72.0179 122.988 72.2805C122.988 72.5434 122.876 72.7582 122.739 72.7582C122.602 72.7582 122.49 72.9824 122.49 73.2565C122.49 73.5306 122.39 73.7549 122.269 73.7549C122.148 73.7549 121.988 74.0631 121.914 74.4401C121.7 75.5332 121.14 76.9941 120.935 76.9941C120.832 76.9941 120.747 77.2744 120.747 77.617C120.747 77.9597 120.635 78.24 120.498 78.24C120.361 78.24 120.249 78.4642 120.249 78.7383C120.249 79.0124 120.137 79.2367 120 79.2367C119.863 79.2367 119.751 79.517 119.751 79.8596C119.751 80.2022 119.651 80.4825 119.53 80.4825C119.408 80.4825 119.23 80.9031 119.134 81.4169C119.038 81.931 118.874 82.4634 118.769 82.6005C118.664 82.7375 118.426 83.3824 118.239 84.0332C118.052 84.6841 117.812 85.2168 117.705 85.2168C117.598 85.2168 117.51 85.4971 117.51 85.8397C117.51 86.1823 117.398 86.4626 117.261 86.4626C117.124 86.4626 117.012 86.743 117.012 87.0856C117.012 87.4282 116.9 87.7085 116.763 87.7085C116.627 87.7085 116.514 88.0167 116.513 88.3937C116.512 88.7707 116.344 89.4001 116.14 89.7926C115.935 90.1853 115.768 90.7178 115.768 90.9762C115.768 91.2345 115.676 91.4461 115.564 91.4461C115.451 91.4461 115.207 92.0067 115.021 92.6919C114.834 93.3772 114.59 93.9378 114.478 93.9378C114.366 93.9378 114.274 94.2181 114.274 94.5607C114.274 94.9033 114.176 95.1837 114.056 95.1837C113.936 95.1837 113.776 95.4936 113.701 95.8726C113.498 96.8878 111.489 98.9212 110.689 98.9212C110.333 98.9212 110.041 98.8091 110.041 98.6721C110.041 98.535 109.858 98.4229 109.635 98.4229C109.191 98.4229 108.13 97.3138 107.907 96.6164C107.83 96.3767 107.663 96.1804 107.535 96.1804C107.407 96.1804 107.303 95.9561 107.303 95.682C107.303 95.4079 107.207 95.1837 107.089 95.1837C106.971 95.1837 106.516 94.5109 106.078 93.6889C105.489 92.5826 105.244 91.7409 105.136 90.4496C105.056 89.4901 104.894 88.7052 104.777 88.7052C104.66 88.7052 104.564 87.8642 104.564 86.8364C104.564 85.7567 104.669 84.9676 104.813 84.9676C104.952 84.9676 105.062 84.2944 105.062 83.4459C105.062 82.0137 105.73 78.5126 106.055 78.24C106.137 78.1715 106.357 77.6387 106.544 77.0564C106.731 76.4741 106.979 75.9974 107.094 75.9974C107.209 75.9974 107.303 75.7732 107.303 75.4991C107.303 75.225 107.402 75.0007 107.524 75.0007C107.645 75.0007 107.804 74.6925 107.876 74.3155C108.045 73.4394 109.153 70.3253 109.375 70.103C109.468 70.0103 109.544 69.7288 109.544 69.4773C109.544 69.2262 109.656 69.0206 109.793 69.0206C109.929 69.0206 110.041 68.6842 110.041 68.2731C110.041 67.862 110.141 67.5256 110.262 67.5256C110.384 67.5256 110.561 67.0046 110.656 66.3677C110.752 65.7308 110.922 65.0301 111.034 64.8104C111.146 64.5906 111.373 63.9064 111.539 63.2897C111.705 62.673 111.925 61.9441 112.027 61.67C112.52 60.3507 112.78 59.3323 112.78 58.7246C112.78 58.3576 112.892 58.0571 113.029 58.0571C113.166 58.0571 113.278 57.6646 113.278 57.185C113.278 56.7053 113.38 56.3128 113.505 56.3128C113.629 56.3128 113.811 55.3598 113.908 54.1949C114.004 53.03 114.182 52.0769 114.303 52.0769C114.424 52.0769 114.523 51.4602 114.523 50.7065C114.523 49.9527 114.635 49.336 114.772 49.336C114.918 49.336 115.021 48.4639 115.021 47.2181C115.021 45.9722 115.123 45.1001 115.27 45.1001C115.422 45.1001 115.519 43.8959 115.519 41.9855C115.519 40.0751 115.422 38.8708 115.27 38.8708C115.133 38.8708 115.021 38.3154 115.021 37.6367C115.021 36.9579 114.917 36.1449 114.79 35.8302C114.663 35.5155 114.362 34.5572 114.121 33.7005C113.879 32.8441 113.591 32.1432 113.48 32.1432C113.369 32.1432 113.278 31.9715 113.278 31.7617C113.278 31.2619 110.428 28.4056 109.929 28.4056C109.717 28.4056 109.544 28.2935 109.544 28.1564C109.544 28.0194 109.376 27.9073 109.17 27.9073C108.965 27.9073 108.797 27.8071 108.797 27.6847C108.797 27.2417 105.623 26.8034 102.573 26.8249C99.3968 26.8475 95.6017 27.3232 95.6017 27.6987C95.6017 27.8133 95.2656 27.9073 94.8548 27.9073C94.444 27.9073 94.1079 28.0194 94.1079 28.1564C94.1079 28.2935 93.8278 28.4056 93.4855 28.4056C93.1431 28.4056 92.8631 28.5177 92.8631 28.6548C92.8631 28.7918 92.639 28.9039 92.3651 28.9039C92.0913 28.9039 91.866 28.9879 91.8645 29.0908C91.8627 29.1937 91.3867 29.502 90.8064 29.776C90.2258 30.0501 89.5163 30.4986 89.2292 30.7727C88.9422 31.0468 88.2757 31.6075 87.7481 32.0186C86.5215 32.9749 85.1452 34.3429 85.1452 34.6062C85.1452 34.7184 84.8091 35.1621 84.3983 35.5925C83.9875 36.0225 83.6515 36.5027 83.6515 36.6592C83.6515 36.8157 83.4453 37.1249 83.1934 37.3466C82.9414 37.5681 82.6524 38.0847 82.5513 38.4946C82.45 38.9042 82.2921 39.2966 82.2003 39.3667C81.8669 39.6203 80.9129 41.6708 80.9129 42.1337C80.9129 42.3948 80.8008 42.6084 80.6639 42.6084C80.527 42.6084 80.4149 42.8887 80.4149 43.2313C80.4149 43.5739 80.3186 43.8543 80.2008 43.8543C80.0831 43.8543 79.8441 45.4171 79.6695 47.327C79.4131 50.1324 79.4126 51.4969 79.6668 54.4284C79.8396 56.4242 80.0788 58.0571 80.1981 58.0571C80.3174 58.0571 80.4149 58.3934 80.4149 58.8046C80.4149 59.2157 80.527 59.5521 80.6639 59.5521C80.8008 59.5521 80.9129 59.8289 80.9129 60.1675C80.9129 60.5059 81.1369 61.1822 81.4108 61.67C81.6846 62.1579 81.9087 62.7781 81.9087 63.048C81.9087 63.3181 82.0158 63.5388 82.1465 63.5388C82.2772 63.5388 82.4577 63.9313 82.5476 64.4109C82.6374 64.8906 82.8107 65.283 82.9322 65.283C83.0539 65.283 83.1535 65.456 83.1535 65.6673C83.1535 65.8786 83.3597 66.2728 83.6116 66.5436C83.8636 66.8142 84.2278 67.3422 84.4207 67.7167C84.6139 68.0912 84.9119 68.5459 85.083 68.7268C85.2543 68.908 85.3942 69.1915 85.3942 69.3572C85.3942 69.5227 85.6183 69.8197 85.8921 70.0173C86.166 70.2149 86.39 70.4965 86.39 70.643C86.39 70.7895 86.8382 71.4049 87.3859 72.0107C87.9336 72.6164 88.3817 73.1888 88.3817 73.2825C88.3817 73.3764 88.6897 73.7868 89.0664 74.1949C89.4431 74.6031 90.0871 75.365 90.4979 75.8885C90.9087 76.412 91.497 77.094 91.805 77.4043C92.1129 77.7145 92.3651 78.0324 92.3651 78.1107C92.3651 78.1891 92.7294 78.6573 93.1743 79.1512C93.6192 79.6451 94.2635 80.3597 94.6058 80.7392C95.7784 82.0391 96.1245 82.511 96.5313 83.3649C96.7554 83.8354 97.03 84.2201 97.1415 84.2201C97.253 84.2201 97.3444 84.3883 97.3444 84.5939C97.3444 84.7994 97.4564 84.9676 97.5934 84.9676C97.7303 84.9676 97.8423 85.1919 97.8423 85.466C97.8423 85.74 97.9544 85.9643 98.0913 85.9643C98.2282 85.9643 98.3402 86.2379 98.3402 86.5725C98.3402 86.9072 98.4403 87.2428 98.5628 87.3186C98.7989 87.4643 98.936 88.2365 99.3548 91.7742C99.5412 93.3483 99.534 94.9026 99.3294 97.256C98.892 102.286 98.8078 102.908 98.565 102.908C98.4416 102.908 98.3402 103.357 98.3402 103.905C98.3402 104.453 98.2282 104.901 98.0913 104.901C97.9544 104.901 97.8423 105.182 97.8423 105.524C97.8423 105.867 97.7303 106.147 97.5934 106.147C97.4564 106.147 97.3444 106.484 97.3444 106.895C97.3444 107.306 97.2471 107.642 97.1278 107.642C97.0088 107.642 96.845 108.119 96.7638 108.701C96.6826 109.284 96.4292 110.377 96.2009 111.131C95.9724 111.884 95.7321 112.922 95.6674 113.436C95.6024 113.95 95.4491 114.37 95.3266 114.37C95.2041 114.37 95.1037 114.874 95.1037 115.491C95.1037 116.108 94.9917 116.612 94.8548 116.612C94.7164 116.612 94.6058 117.277 94.6058 118.107C94.6058 118.938 94.4953 119.603 94.3568 119.603C94.1988 119.603 94.1079 121.513 94.1079 124.835C94.1079 128.157 94.1988 130.068 94.3568 130.068C94.4938 130.068 94.6058 130.46 94.6058 130.94C94.6058 131.419 94.7178 131.812 94.8548 131.812C94.9917 131.812 95.1037 132.092 95.1037 132.435C95.1037 132.777 95.2083 133.058 95.336 133.058C95.4637 133.058 95.632 133.254 95.7102 133.494C95.9288 134.163 97.989 136.297 98.4169 136.297C98.6258 136.297 98.8434 136.437 98.9004 136.608C98.9768 136.838 99.9391 136.92 102.573 136.92C105.206 136.92 106.168 136.838 106.245 136.608C106.302 136.437 106.504 136.297 106.694 136.297C107.079 136.297 108.198 135.698 109.612 134.734C110.605 134.057 112.282 131.835 112.282 131.195C112.282 130.986 112.394 130.815 112.531 130.815C112.668 130.815 112.78 130.479 112.78 130.068C112.78 129.657 112.892 129.32 113.029 129.32C113.166 129.32 113.278 129.04 113.278 128.697C113.278 128.355 113.376 128.074 113.495 128.074C113.614 128.074 113.784 127.542 113.872 126.891C114.039 125.664 114.553 123.975 114.85 123.677C114.944 123.583 115.021 123.301 115.021 123.049C115.021 122.798 115.133 122.593 115.27 122.593C115.407 122.593 115.519 122.256 115.519 121.845C115.519 121.434 115.631 121.098 115.768 121.098C115.905 121.098 116.017 120.817 116.017 120.475C116.017 120.132 116.114 119.852 116.233 119.852C116.353 119.852 116.524 119.296 116.614 118.616C116.704 117.937 116.887 117.313 117.02 117.231C117.153 117.149 117.261 116.864 117.261 116.598C117.261 116.332 117.373 116.114 117.51 116.114C117.647 116.114 117.759 115.834 117.759 115.491C117.759 115.149 117.871 114.868 118.008 114.868C118.145 114.868 118.257 114.644 118.257 114.37C118.257 114.096 118.369 113.872 118.506 113.872C118.643 113.872 118.755 113.535 118.755 113.124C118.755 112.713 118.867 112.377 119.004 112.377C119.141 112.377 119.253 112.156 119.253 111.887C119.253 111.445 119.696 110.234 120.279 109.078C120.4 108.841 120.498 108.476 120.498 108.269C120.498 108.061 120.61 107.891 120.747 107.891C120.884 107.891 120.996 107.611 120.996 107.269C120.996 106.926 121.108 106.646 121.245 106.646C121.382 106.646 121.494 106.421 121.494 106.147C121.494 105.873 121.578 105.649 121.68 105.649C121.783 105.649 122.087 104.92 122.356 104.029C122.624 103.138 122.933 102.41 123.04 102.41C123.148 102.41 123.237 102.185 123.237 101.911C123.237 101.637 123.349 101.413 123.485 101.413C123.622 101.413 123.734 101.133 123.734 100.79C123.734 100.447 123.846 100.167 123.983 100.167C124.12 100.167 124.232 99.9429 124.232 99.6688C124.232 99.3947 124.332 99.1704 124.454 99.1704C124.575 99.1704 124.748 98.778 124.838 98.2983C124.928 97.8187 125.109 97.4262 125.239 97.4262C125.37 97.4262 125.477 97.202 125.477 96.9279C125.477 96.6538 125.589 96.4295 125.726 96.4295C125.863 96.4295 125.975 96.2053 125.975 95.9312C125.975 95.6571 126.087 95.4328 126.224 95.4328C126.361 95.4328 126.473 95.2871 126.473 95.1087C126.473 94.6711 127.054 93.4439 127.262 93.4415C127.354 93.4405 127.503 93.1031 127.593 92.6919C127.683 92.2808 127.86 91.9444 127.986 91.9444C128.113 91.9444 128.216 91.7202 128.216 91.4461C128.216 91.172 128.3 90.9477 128.404 90.9477C128.508 90.9477 128.751 90.5835 128.945 90.1379C129.139 89.6924 129.503 89.1467 129.753 88.9252C130.003 88.7035 130.207 88.3877 130.207 88.2233C130.207 87.8877 131.377 86.2508 131.95 85.7854C132.763 85.1246 133.942 85.6536 133.942 86.6794C133.942 86.955 134.054 87.25 134.191 87.3347C134.328 87.4195 134.44 87.868 134.44 88.3314C134.44 88.7949 134.539 89.2357 134.661 89.3112C134.783 89.3864 134.941 89.8135 135.011 90.2603C135.082 90.7068 135.272 91.5208 135.433 92.069C135.594 92.6172 135.844 93.7103 135.989 94.4984C136.133 95.2866 136.348 95.9312 136.466 95.9312C136.584 95.9312 136.68 96.3169 136.68 96.7886C136.68 97.2603 136.793 97.7153 136.929 97.8C137.066 97.8847 137.178 98.2276 137.178 98.5622C137.178 98.8968 137.29 99.1704 137.427 99.1704C137.564 99.1704 137.676 99.5068 137.676 99.9179C137.676 100.329 137.776 100.665 137.897 100.665C138.018 100.665 138.184 100.974 138.264 101.351C138.345 101.728 138.55 102.68 138.719 103.469C138.889 104.257 139.116 104.901 139.224 104.901C139.331 104.901 139.419 105.182 139.419 105.524C139.419 105.867 139.531 106.147 139.668 106.147C139.805 106.147 139.917 106.428 139.917 106.77C139.917 107.113 140.029 107.393 140.166 107.393C140.303 107.393 140.415 107.729 140.415 108.141C140.415 108.552 140.503 108.888 140.611 108.888C140.719 108.888 141.027 109.617 141.296 110.508C141.564 111.399 141.868 112.127 141.971 112.127C142.074 112.127 142.158 112.408 142.158 112.75C142.158 113.093 142.27 113.373 142.407 113.373C142.544 113.373 142.656 113.597 142.656 113.872C142.656 114.146 142.768 114.37 142.905 114.37C143.042 114.37 143.154 114.65 143.154 114.993C143.154 115.335 143.266 115.616 143.402 115.616C143.539 115.616 143.651 115.84 143.651 116.114C143.651 116.388 143.751 116.612 143.873 116.612C143.994 116.612 144.168 117.005 144.257 117.485C144.347 117.964 144.528 118.357 144.659 118.357C144.789 118.357 144.896 118.581 144.896 118.855C144.896 119.129 145.008 119.353 145.145 119.353C145.282 119.353 145.393 119.494 145.391 119.665C145.388 120.055 147.194 123.684 147.448 123.797C147.551 123.843 147.635 124.095 147.635 124.357C147.635 124.62 147.747 124.835 147.884 124.835C148.021 124.835 148.133 125.008 148.133 125.219C148.133 125.431 148.339 125.825 148.591 126.096C148.843 126.366 149.207 126.894 149.4 127.269C149.593 127.643 149.891 128.098 150.062 128.279C150.234 128.46 150.373 128.717 150.373 128.851C150.373 128.985 150.654 129.374 150.996 129.717C151.338 130.059 151.618 130.421 151.618 130.521C151.618 130.62 152.234 131.365 152.988 132.174C153.741 132.984 154.357 133.739 154.357 133.851C154.357 133.963 154.465 134.054 154.597 134.054C154.73 134.054 155.172 134.381 155.58 134.781C155.989 135.181 156.553 135.581 156.834 135.67C157.115 135.759 157.344 135.937 157.344 136.065C157.344 136.192 157.512 136.297 157.718 136.297C157.923 136.297 158.091 136.409 158.091 136.546C158.091 136.683 158.382 136.795 158.738 136.795C159.094 136.795 159.738 136.954 160.17 137.148C161.864 137.91 166.081 138.263 167.672 137.777C168.222 137.609 169.176 137.316 169.793 137.128C170.895 136.789 172.038 136.294 172.282 136.048C172.351 135.979 172.742 135.755 173.153 135.549C173.968 135.141 174.209 134.946 176.328 132.978L177.759 131.648V127.619C177.759 125.386 177.659 123.589 177.535 123.589C177.411 123.589 177.249 123.057 177.174 122.406C176.939 120.343 176.716 119.353 176.487 119.353C176.365 119.353 176.266 119.172 176.266 118.951C176.266 118.394 175.436 116.008 175.207 115.907C175.105 115.861 175.021 115.609 175.021 115.346C175.021 115.083 174.909 114.868 174.772 114.868C174.635 114.868 174.52 114.672 174.517 114.432C174.514 114.192 174.293 113.716 174.025 113.373C173.757 113.031 173.535 112.61 173.532 112.439C173.529 112.268 173.415 112.127 173.278 112.127C173.141 112.127 173.029 111.973 173.029 111.784C173.029 111.595 172.861 111.301 172.656 111.131C172.45 110.96 172.282 110.635 172.282 110.408C172.282 110.181 172.058 109.833 171.784 109.636C171.51 109.438 171.286 109.133 171.286 108.958C171.286 108.782 171.202 108.639 171.1 108.638C170.997 108.638 170.581 108.106 170.177 107.455C169.772 106.804 169.24 106.09 168.994 105.869C168.749 105.647 168.548 105.39 168.548 105.297C168.548 105.204 168.296 104.858 167.988 104.528C167.155 103.637 166.805 103.195 166.805 103.035C166.805 102.956 166.441 102.506 165.996 102.036C164.872 100.848 164.066 99.7649 164.066 99.4425C164.066 99.2928 163.954 99.1704 163.817 99.1704C163.68 99.1704 163.568 99.0114 163.568 98.8173C163.568 98.6232 163.484 98.4271 163.382 98.3813C163.114 98.2624 162.075 96.7422 162.075 96.4701C162.075 96.3443 161.907 96.1019 161.701 95.9312C161.496 95.7605 161.328 95.3543 161.328 95.0287C161.328 94.7028 161.216 94.4361 161.079 94.4361C160.942 94.4361 160.83 94.1558 160.83 93.8132C160.83 93.4706 160.718 93.1903 160.581 93.1903C160.425 93.1903 160.332 91.6953 160.332 89.2035C160.332 86.7118 160.425 85.2168 160.581 85.2168C160.718 85.2168 160.83 84.6562 160.83 83.9709C160.83 83.2857 160.942 82.7251 161.079 82.7251C161.216 82.7251 161.328 82.2805 161.328 81.7371C161.328 80.3076 162.768 76.3119 163.382 76.039C163.484 75.9932 163.568 75.7971 163.568 75.603C163.568 75.4086 163.68 75.2499 163.817 75.2499C163.954 75.2499 164.066 75.138 164.066 75.0012C164.066 74.8647 164.459 74.2064 164.938 73.5388C165.417 72.8711 165.809 72.2491 165.809 72.1564C165.809 72.0638 166.061 71.7269 166.369 71.4077C166.677 71.0887 167.154 70.5159 167.427 70.1349C167.701 69.7539 168.401 68.9371 168.983 68.3197C169.565 67.7022 170.041 67.1065 170.041 66.9958C170.041 66.8852 170.434 66.4023 170.913 65.9227C171.392 65.443 171.784 64.986 171.784 64.907C171.784 64.7555 172.088 64.3641 172.905 63.4646C173.178 63.1628 173.562 62.6077 173.756 62.2307C173.95 61.8537 174.202 61.5455 174.316 61.5455C174.43 61.5455 174.523 61.3773 174.523 61.1717C174.523 60.9661 174.635 60.7979 174.772 60.7979C174.909 60.7979 175.021 60.5737 175.021 60.2996C175.021 60.0255 175.116 59.8013 175.232 59.8013C175.348 59.8013 175.652 59.2967 175.906 58.68C176.16 58.0633 176.457 57.5587 176.566 57.5587C176.674 57.5587 176.763 57.3345 176.763 57.0604C176.763 56.7863 176.876 56.562 177.012 56.562C177.149 56.562 177.261 56.2817 177.261 55.9391C177.261 55.5965 177.373 55.3162 177.51 55.3162C177.647 55.3162 177.759 55.0919 177.759 54.8178C177.759 54.5437 177.849 54.3195 177.959 54.3195C178.166 54.3195 178.688 52.3949 178.922 50.7688C178.996 50.255 179.157 49.8344 179.279 49.8344C179.402 49.8344 179.502 49.3365 179.502 48.7278C179.502 48.1191 179.614 47.552 179.751 47.4672C179.899 47.3758 180 45.8035 180 43.5904C180 41.2746 179.906 39.8675 179.751 39.8675C179.614 39.8675 179.502 39.4175 179.502 38.8673C179.502 38.3174 179.405 37.6726 179.286 37.4346C179 36.8605 178.488 35.3964 178.327 34.6972C178.257 34.389 178.1 34.1366 177.979 34.1366C177.858 34.1366 177.759 33.9684 177.759 33.7628C177.759 33.5572 177.675 33.389 177.571 33.389C177.468 33.389 177.225 33.0325 177.032 32.5964C176.714 31.8756 176.17 31.1283 175.332 30.2589C175.161 30.0815 175.021 29.8428 175.021 29.7285C175.021 29.6141 174.72 29.2976 174.354 29.0253C173.987 28.7529 173.454 28.3022 173.171 28.0236C172.537 27.4004 170.352 26.163 169.886 26.163C169.697 26.163 169.544 26.0509 169.544 25.9139C169.544 25.7768 169.319 25.6647 169.046 25.6647C168.772 25.6647 168.548 25.5526 168.548 25.4155C168.548 25.2785 168.156 25.1664 167.676 25.1664C167.197 25.1664 166.805 25.0732 166.805 24.9593C166.805 24.6488 161.381 24.0852 157.842 24.0281C155.822 23.9955 154.075 24.1126 152.863 24.362Z" fill="white"/>
</svg>
